<svg xmlns="http://www.w3.org/2000/svg" viewBox="0 0 400 120"><g><path fill="#FF9900" d="M370.5 104.5c-2.2 0-4.3-0.7-6-2.1-1.8-1.4-3.1-3.3-3.7-5.5-0.6-2.2-0.4-4.6 0.7-6.7 1.1-2.1 2.9-3.7 5.1-4.5 2.2-0.8 4.6-0.6 6.7 0.7 2.1 1.3 3.7 3.2 4.5 5.4 0.8 2.2 0.6 4.6-0.7 6.7-1.3 2.1-3.2 3.7-5.4 4.5-0.7 0.2-1.4 0.3-2.2 0.3z"/><path fill="#000" d="M283.8 71.4c-8.1 0-14.7-6.6-14.7-14.7s6.6-14.7 14.7-14.7 14.7 6.6 14.7 14.7-6.6 14.7-14.7 14.7zm0-25.5c-6 0-10.8 4.8-10.8 10.8s4.8 10.8 10.8 10.8 10.8-4.8 10.8-10.8-4.8-10.8-10.8-10.8z"/><text x="10" y="100" font-family="Arial, Helvetica, sans-serif" font-size="90" fill="#000">amazon</text></g></svg>
